# xmcd
# Copyright (C) 1995-1998 Ti Kan
#
# Track frame offsets:
#       150
#       6960
#       28463
#       45176
#       73512
#       96163
#       113924
#       132864
#       154704
#       169726
#       185242
#       210081
#       227594
#       258675
#
# Disc length: 3746 seconds
#
# Revision: 0
# Processed by: cddbd v1.5.1PL0 Copyright (c) Steve Scherf et al.
# Submitted via: CD-Transfer v1.0
#
DISCID=ba0ea00e
DTITLE=Etna - 
DYEAR=2004
DGENRE=
TTITLE0=Ye Maya
TTITLE1=Dobra I Z³a
TTITLE2=Twój Czas
TTITLE3=Revolution
TTITLE4=Otwóz Oczy
TTITLE5=Secret In My Soul
TTITLE6=Jak Lew
TTITLE7=On The Green Grass
TTITLE8=Chains No Longer Band
TTITLE9=Latinoska
TTITLE10=W Kierunku S³oñca
TTITLE11=Dobraska
TTITLE12=Halleluj Jak
TTITLE13=Data Track
EXTD=
EXTT0=
EXTT1=
EXTT2=
EXTT3=
EXTT4=
EXTT5=
EXTT6=
EXTT7=
EXTT8=
EXTT9=
EXTT10=
EXTT11=
EXTT12=
EXTT13=
PLAYORDER=
